<svg width="44" height="36" viewBox="0 0 44 36" fill="none" xmlns="http://www.w3.org/2000/svg">
<path d="M8.21749 23.7953C6.94837 23.3975 5.63015 23.56 4.40434 24.266C3.72069 24.6602 3.11718 25.2045 2.56708 25.9336L2.58657 24.3642C2.60606 22.7565 2.62699 21.0939 2.65298 19.4552C2.66309 18.8495 2.68836 18.2322 2.71291 17.6352C2.72229 17.4114 2.73168 17.1869 2.74034 16.9631C2.76248 16.3639 2.78654 15.765 2.81253 15.1663C2.84718 14.2812 2.88087 13.3961 2.91359 12.5111C2.92696 12.3718 2.88465 12.233 2.79592 12.1249C2.74421 12.0769 2.68336 12.0398 2.617 12.0159C2.55064 11.9919 2.48014 11.9816 2.4097 11.9855C2.12093 11.9812 1.84011 11.9819 1.57878 11.9855C1.13336 11.9855 1.03157 12.0772 0.975258 12.519C0.959376 12.6425 0.943493 12.7753 0.938439 12.9089C0.93122 13.0966 0.926167 13.2843 0.920391 13.4719C0.911729 13.8076 0.901626 14.1542 0.879246 14.4927C0.855423 14.8429 0.822939 15.2002 0.791175 15.5453C0.744973 16.0557 0.697319 16.5834 0.675662 17.1061C0.592642 19.0993 0.537055 20.9019 0.504569 22.6164L0.500242 22.838C0.463424 24.78 0.428052 26.7884 0.709599 28.7577C1.02146 30.9235 1.92385 32.7283 3.39078 34.1288C4.22018 34.9136 5.31851 35.3511 6.46035 35.3517C7.18861 35.3564 7.90474 35.1651 8.53369 34.798C10.4735 33.648 11.5614 31.9645 11.7679 29.7944C11.8877 28.5361 11.726 27.4561 11.2719 26.4931C10.9764 25.857 10.5526 25.289 10.0269 24.8247C9.50123 24.3604 8.88519 24.0099 8.21749 23.7953ZM9.73351 29.1014C9.77394 30.6131 9.12421 31.8721 7.80023 32.8438C6.8704 33.526 5.61499 33.4213 4.74798 32.5882C4.15745 32.0208 3.73224 31.4331 3.44853 30.7834C3.20164 30.2211 3.14461 29.6673 3.27744 29.1382C3.58642 27.9109 4.21159 26.9342 5.13492 26.244C5.66697 25.847 6.24667 25.6427 6.83142 25.6427C6.96294 25.6426 7.09427 25.653 7.22414 25.6737C7.96266 25.79 8.65569 26.2354 9.12566 26.901C9.53498 27.4785 9.72774 28.1744 9.73279 29.0978L9.73351 29.1014Z" fill="black"/>
<path d="M26.5361 8.84598C27.0096 8.76223 27.3258 8.82071 27.5597 9.03584C27.7739 9.22316 27.958 9.44229 28.1055 9.68556C28.5403 10.4585 28.7799 11.3258 28.8036 12.2123C28.8202 12.8295 28.8036 13.4597 28.7949 14.0697C28.7892 14.3924 28.7819 14.7267 28.7798 15.0559C28.7798 15.3685 28.7863 15.6883 28.8072 16.0333C28.8151 16.1734 28.9574 16.3849 29.1378 16.3943C29.5161 16.4066 29.8901 16.4066 30.2489 16.3943C30.3606 16.3949 30.4679 16.3511 30.5474 16.2726C30.6268 16.1941 30.6719 16.0873 30.6726 15.9756C30.6784 15.8514 30.6871 15.7273 30.6957 15.6031C30.7109 15.3959 30.726 15.1808 30.7268 14.9664C30.7268 14.5707 30.7268 14.1723 30.7217 13.781C30.7217 13.42 30.7145 13.0497 30.7159 12.6851V12.5234C30.7083 12.1804 30.7233 11.8372 30.7607 11.4961C30.867 10.7651 31.1713 10.077 31.6407 9.50653C31.9338 9.13908 32.2738 8.78028 32.7785 8.6489C33.0896 8.56876 33.2751 8.62796 33.4181 8.85392C33.5697 9.09889 33.6898 9.36208 33.7754 9.6372C34.0981 10.6594 34.2086 11.7242 34.2807 12.7219C34.3688 13.9694 34.4071 15.2385 34.4439 16.4651C34.467 17.2361 34.4634 17.9435 34.4324 18.6308L34.4273 18.7326C34.4038 18.9821 34.414 19.2337 34.4576 19.4805C34.5298 19.8147 34.7262 19.8999 34.8792 19.9136C35.194 19.9396 35.4748 19.9519 35.7361 19.9519H35.7599C36.061 19.9519 36.2653 19.7678 36.2891 19.4725C36.305 19.2892 36.3245 19.1022 36.3433 18.921C36.3714 18.6459 36.401 18.3615 36.4155 18.0785C36.5877 15.4757 36.4634 12.8617 36.0451 10.2869C35.9347 9.62492 35.7506 8.76151 35.3001 7.96236C34.7226 6.93724 33.6267 6.38498 32.572 6.59072C31.7028 6.74631 30.9141 7.19776 30.3398 7.86851C30.168 8.06848 30.0027 8.27928 29.8424 8.48286L29.8128 8.52112C29.1313 7.46857 28.2802 6.90042 27.2139 6.78347C26.087 6.66075 25.189 7.04408 24.5472 7.9241C24.4945 7.99629 24.4418 8.06848 24.3898 8.14067C24.3819 7.96525 24.371 7.77466 24.3573 7.55447C24.3321 7.16897 24.0808 7.10256 23.9733 7.09173C23.6614 7.05996 23.3084 7.02459 22.9583 7.01954C22.6478 7.0116 22.4342 7.17619 22.401 7.44475C22.3628 7.70658 22.3421 7.97066 22.3389 8.23524C22.3389 8.46 22.3389 8.68451 22.3389 8.90878C22.3389 9.63936 22.3389 10.3945 22.3887 11.1373C22.4609 12.2996 22.5655 13.4785 22.6645 14.6184C22.7034 15.065 22.7417 15.5116 22.7792 15.9583C22.786 16.1049 22.8449 16.2442 22.9454 16.3512C23.0458 16.4582 23.1813 16.5257 23.3272 16.5416L23.3799 16.5473C23.615 16.584 23.8541 16.5874 24.0902 16.5575C24.1754 16.543 24.2469 16.5329 24.3068 16.5242C24.7067 16.4679 24.8035 16.4037 24.8331 15.8998C24.8331 15.8644 24.8381 15.8276 24.8403 15.7836C24.8641 15.4226 24.8742 15.0617 24.8843 14.7144C24.8952 14.3433 24.906 13.9593 24.9327 13.5846C24.9782 12.9501 25.0403 12.2007 25.1615 11.4564C25.2945 10.5829 25.6713 9.76459 26.2487 9.09576C26.4061 8.90157 26.4913 8.85392 26.5361 8.84598Z" fill="black"/>
<path d="M1.86033 5.18947C2.18014 5.45441 2.51582 5.70564 2.8313 5.93809C2.95547 6.02978 3.16555 5.99585 3.27095 5.90416C3.86797 5.38438 4.59422 5.36634 5.3645 5.34757L5.56447 5.34179C5.55797 5.40893 5.55147 5.47463 5.54498 5.54032C5.51466 5.84713 5.48578 6.13734 5.46412 6.43116C5.23167 9.513 5.27065 12.0282 5.58612 14.3477C5.83229 16.1597 6.48707 17.784 7.58726 19.3137C8.92785 21.1762 10.8207 22.1783 13.2182 22.2909C13.3034 22.2909 13.3878 22.2966 13.4716 22.2966C14.8151 22.2966 16.0921 21.787 17.4688 20.7084C17.6688 20.5518 17.868 20.3208 17.6356 19.9194C17.4408 19.5926 17.2279 19.2769 16.9981 18.9737C16.8869 18.8228 16.6502 18.8293 16.5404 18.8517C16.4459 18.8787 16.36 18.93 16.2914 19.0004L16.2567 19.0307C15.0338 20.0529 13.8448 20.4103 12.5158 20.1554C11.3968 19.9389 10.5298 19.5057 9.86635 18.8257C9.08111 18.0066 8.47593 17.0324 8.08972 15.9655C7.6443 14.775 7.53095 13.5232 7.45299 12.3436C7.32167 10.24 7.36078 8.12924 7.56994 6.03194C7.58582 5.86229 7.60676 5.68831 7.62625 5.5201C7.62625 5.50494 7.62985 5.48978 7.6313 5.47462C7.80023 5.49195 7.96843 5.51072 8.13664 5.52949C8.4781 5.56775 8.83185 5.60673 9.18125 5.63705C10.1797 5.72296 11.4914 5.76195 12.7699 5.29776C13.6412 4.98156 14.3097 4.61411 14.875 4.1427C14.9472 4.07989 15.15 3.91241 15.028 3.63736C14.8529 3.22256 14.5758 2.85875 14.2224 2.57975C14.1213 2.50107 13.9069 2.39422 13.6145 2.56098C13.4932 2.63317 13.3727 2.70537 13.2536 2.77756C13.1229 2.85625 12.9886 2.93782 12.8551 3.0129C12.1476 3.41068 11.4726 3.60487 10.7918 3.60487H10.7723C10.1558 3.60487 9.52632 3.55939 8.91703 3.51896C8.69612 3.50356 8.47474 3.48912 8.25287 3.47565C8.14025 3.46915 8.02619 3.45327 7.90635 3.43666C7.91068 3.40995 7.9143 3.38396 7.91863 3.3587C7.95183 3.14862 7.98288 2.9501 8.00959 2.74868C8.12437 1.88239 8.21317 1.18069 8.28969 0.542517C8.30413 0.420514 8.22616 0.166399 8.03052 0.134635L7.90707 0.114419C7.58739 0.055745 7.26427 0.0176491 6.93971 0.000359772C6.64156 -0.00974701 6.41344 0.193831 6.35713 0.517248C6.26689 1.03269 6.16799 1.55608 6.06836 2.06214C5.99617 2.46208 5.91387 2.87502 5.84024 3.2829H5.83374L5.52476 3.29734C5.11327 3.31466 4.68734 3.33343 4.26863 3.38757C3.36084 3.50433 2.52025 3.92793 1.88632 4.58812C1.83633 4.63142 1.79608 4.68481 1.76821 4.74478C1.74034 4.80476 1.72548 4.86995 1.72461 4.93608C1.72819 4.98547 1.74213 5.03356 1.76551 5.07721C1.78889 5.12087 1.8212 5.15912 1.86033 5.18947V5.18947Z" fill="black"/>
<path d="M20.6061 13.2287C20.5765 12.7313 20.5462 12.2181 20.5433 11.7127C20.5368 10.7396 20.5527 9.74839 20.5671 8.78969C20.5739 8.36953 20.5799 7.94938 20.5852 7.52922C20.5852 7.38484 20.5729 7.22891 20.456 7.11485C20.339 7.00078 20.1766 6.98923 20.0344 6.99501C19.8921 7.00078 19.7333 7.008 19.5824 7.01594C19.4316 7.02389 19.2554 7.03327 19.093 7.03832C18.6728 7.05132 18.5335 7.19931 18.5422 7.62452C18.5422 7.66278 18.5422 7.70176 18.5422 7.74074C18.0664 7.3076 17.5878 7.01883 17.0853 6.84774C15.1918 6.2074 13.3812 6.57558 11.85 7.91184C10.4834 9.10588 9.8395 10.7526 9.93624 12.8064C9.97159 13.6909 10.3118 14.5359 10.8993 15.1981C11.5194 15.8976 12.1532 16.3986 12.8362 16.7293C13.5191 17.0599 14.2612 17.3624 15.0871 17.3624C15.1593 17.3624 15.2257 17.3624 15.2957 17.3559C16.5829 17.2751 17.6997 16.7351 18.6209 15.7496C18.6288 15.8615 18.636 15.9706 18.6425 16.0796C18.6442 16.2015 18.6924 16.3181 18.7772 16.4057C18.8619 16.4933 18.977 16.5453 19.0988 16.551H19.1161C19.4525 16.582 19.8005 16.6145 20.1477 16.6196C20.218 16.6265 20.289 16.6193 20.3564 16.5984C20.4239 16.5774 20.4865 16.5431 20.5404 16.4975C20.6552 16.3842 20.6704 16.2268 20.6704 16.0731C20.6704 15.9193 20.6704 15.7684 20.6704 15.6168C20.6704 15.1779 20.6704 14.7253 20.6574 14.2777C20.6473 13.9297 20.6263 13.5731 20.6061 13.2287ZM17.9913 12.4779C17.8546 12.943 17.6781 13.3954 17.4636 13.8301C17.0197 14.6769 16.292 15.1671 15.3022 15.2876C15.1065 15.3104 14.9083 15.2984 14.7167 15.2522C13.7973 15.0327 12.9782 14.5107 12.3907 13.7702C12.089 13.3977 11.9728 12.9428 11.9771 12.148C12.0969 10.8262 12.5821 9.87688 13.4599 9.24665C14.3009 8.64241 15.1874 8.4576 16.0942 8.69728C17.0269 8.94345 17.6564 9.54047 17.9661 10.471C18.1918 11.1196 18.2006 11.8239 17.9913 12.4779V12.4779Z" fill="black"/>
<path d="M43.4373 31.5104C43.2604 31.3769 43.0864 31.2282 42.9189 31.0845L42.8157 30.9972C42.6829 30.8831 42.5205 30.7705 42.3284 30.7907C42.1364 30.8109 41.9992 30.9589 41.8953 31.0997C41.3181 31.8792 40.5612 32.508 39.6891 32.9326C38.3478 33.5737 36.9689 33.5729 35.5901 32.9326C34.2906 32.3247 33.4243 31.2325 33.028 29.684C32.7616 28.6495 32.6324 27.4872 32.6339 26.1307C32.6339 24.7591 32.6663 23.3947 32.701 22.005C32.7234 21.1142 32.7559 20.2074 32.7869 19.3339C32.8023 18.9085 32.817 18.4835 32.8309 18.059C32.8353 17.9363 32.8259 17.7804 32.7169 17.6685C32.6079 17.5566 32.4541 17.5414 32.3169 17.5421L31.9603 17.5457C31.8304 17.5457 31.6997 17.5457 31.5698 17.5501C31.0825 17.5501 30.8969 17.7205 30.8601 18.1926C30.8392 18.4712 30.8161 18.7499 30.793 19.0286C30.7432 19.6357 30.6912 20.2638 30.6565 20.8839C30.6125 21.683 30.5807 22.4721 30.5446 23.3839C30.5287 23.799 30.5114 24.2364 30.4912 24.705V24.723C30.5006 24.9641 30.5085 25.2283 30.5172 25.5171C30.5403 26.2578 30.5656 27.0981 30.6212 27.9478C30.6897 29.0032 30.863 29.9237 31.151 30.7633C32.0845 33.4805 34.3867 35.273 37.1595 35.4412C37.3602 35.4535 37.5537 35.46 37.7414 35.46C38.8741 35.46 39.7931 35.237 40.5994 34.772C41.0896 34.4891 41.5379 34.1324 41.9711 33.7874C42.0673 33.7123 42.1614 33.6374 42.2533 33.5628C42.7662 33.1514 43.2027 32.6529 43.5427 32.0901C43.6762 31.8656 43.6387 31.6628 43.4373 31.5104Z" fill="black"/>
<path d="M34.2446 24.6891C33.8091 25.4291 33.5902 26.2766 33.6129 27.135C33.6345 27.961 33.8655 28.7681 34.2843 29.4804C34.7723 30.32 35.4336 30.8968 36.3057 31.2441C36.9007 31.4814 37.5301 31.6216 38.1697 31.6592C38.2505 31.6635 38.3314 31.6664 38.4115 31.6664C39.5066 31.6664 40.4906 31.2231 41.3396 30.3467C41.4269 30.2565 41.5251 30.1302 41.5107 29.9771C41.4962 29.8241 41.38 29.7194 41.2688 29.6407C41.1136 29.5303 40.9562 29.4241 40.7996 29.3137C40.6761 29.2285 40.5527 29.1433 40.4292 29.0567C40.1773 28.8798 39.9239 28.8914 39.6864 29.0892C39.2359 29.4711 38.8064 29.6335 38.3342 29.601C38.1535 29.5913 37.9734 29.5711 37.795 29.5404C36.5865 29.305 36.0869 28.8416 35.7404 27.6338C35.7213 27.5589 35.7082 27.4826 35.7014 27.4057L35.7664 27.4114C35.9916 27.4324 36.1996 27.4512 36.4212 27.4512C37.2709 27.4512 38.1336 27.4425 38.9681 27.4345C39.3531 27.4312 39.7381 27.4281 40.1232 27.4252C40.5881 27.4216 40.9432 27.1978 41.123 26.7956C41.2324 26.5395 41.2976 26.2666 41.3158 25.9886C41.3641 25.3901 41.3656 24.6891 41.0068 24.0286C40.4913 23.08 39.6611 22.4931 38.4685 22.2346C37.8118 22.0912 37.1257 22.1826 36.5295 22.493C35.5794 22.9681 34.812 23.7066 34.2446 24.6891ZM36.1534 25.5078C36.3275 25.2399 36.5373 24.997 36.7771 24.7858C36.8872 24.6887 37.0039 24.5995 37.1265 24.5187C37.3698 24.3487 37.6584 24.2554 37.9552 24.2509C38.3415 24.2509 38.7161 24.4227 39.023 24.7562C39.1817 24.9242 39.2674 25.1482 39.2612 25.3793C38.257 25.4276 37.2535 25.4666 36.1526 25.5078H36.1534Z" fill="black"/>
<path d="M30.2135 33.2784C29.8656 33.134 29.4967 32.9738 29.1415 32.8099C28.8589 32.6776 28.6361 32.4442 28.517 32.1558C28.2537 31.5514 28.0913 30.9078 28.0362 30.2507C27.8319 28.2294 27.9207 26.1546 28.0211 24.37C28.0731 23.4315 28.1474 22.4772 28.2196 21.5545C28.2521 21.1351 28.2853 20.715 28.3156 20.2955L28.3322 20.079L28.2651 20.0746V19.6906C28.2651 19.1939 28.2651 18.6799 28.2651 18.1746C28.2651 17.8324 28.0593 17.597 27.7597 17.5927C27.3836 17.5848 27.0682 17.5811 26.7491 17.5862C26.6358 17.594 26.5265 17.6313 26.4321 17.6945C26.1723 17.8475 26.1997 18.0995 26.2156 18.2345C26.2195 18.2632 26.2216 18.2921 26.2221 18.3211C26.1917 19.1152 26.1672 19.9259 26.1441 20.7085C26.1354 21.0001 26.1265 21.292 26.1174 21.5841C26.1174 21.7112 26.1116 21.8383 26.1087 21.9653C26.1037 22.2498 26.0986 22.5429 26.0741 22.8316C25.8611 25.3042 25.8106 27.5313 25.921 29.6407C25.9629 30.5761 26.1229 31.5025 26.3975 32.3977C26.8451 33.8285 27.8644 34.7461 29.4295 35.1251C29.4867 35.1392 29.5453 35.1467 29.6042 35.1475C29.8208 35.1475 29.9883 35.0291 30.085 34.7988L30.168 34.6024C30.2742 34.3526 30.3846 34.0971 30.4857 33.8357C30.5499 33.6473 30.5211 33.4076 30.2135 33.2784Z" fill="black"/>
<path d="M15.1393 23.0337C14.1798 23.4821 13.5388 24.1888 13.2839 25.0688C13.0334 25.9351 13.193 26.9068 13.7214 27.7276C14.3293 28.6704 15.2374 29.1823 16.1983 29.1823C16.5925 29.1801 16.9822 29.0983 17.344 28.9419C17.5407 28.8593 17.7313 28.7628 17.9143 28.6531C19.0232 27.9789 19.6195 27.0108 19.6375 25.8528C19.644 25.2313 19.5444 24.7317 19.3228 24.2805C18.8448 23.3066 18.0767 22.7486 17.1029 22.667C16.4276 22.6161 15.7507 22.7425 15.1393 23.0337ZM15.3125 25.4449C15.4497 25.123 15.7457 24.8674 16.173 24.7021C16.2911 24.6599 16.4158 24.6391 16.5412 24.6407C16.6227 24.6406 16.7039 24.6486 16.7838 24.6646C17.331 24.7779 17.5822 25.1403 17.5736 25.8066V25.8174C17.5894 26.2658 17.2848 26.5892 17.0227 26.7826C16.9787 26.8144 16.9289 26.8447 16.8784 26.8765C16.848 26.8938 16.8184 26.9119 16.7888 26.9306C16.5001 27.1118 16.2337 27.1653 15.9947 27.0895C15.7298 27.0064 15.4966 26.7632 15.3537 26.4224C15.2107 26.0817 15.1898 25.7351 15.3125 25.4464V25.4449Z" fill="black"/>
<path d="M22.839 22.6309C22.6022 22.6352 22.3437 22.6431 22.0449 22.6554C21.7835 22.6662 21.6153 22.8352 21.5951 23.1073C21.5655 23.5051 21.5338 23.9014 21.5027 24.3014C21.4435 25.0471 21.3822 25.8174 21.3338 26.5783C21.2537 27.8099 21.2508 29.0454 21.3251 30.2774C21.3605 30.8506 21.3475 31.4418 21.3345 32.01C21.3273 32.3197 21.3201 32.6395 21.3201 32.9549C21.317 33.3488 21.3349 33.7426 21.3735 34.1346C21.393 34.3186 21.5605 34.6052 21.7792 34.6356C22.1336 34.677 22.4901 34.6982 22.8469 34.6991H22.9523H22.9581C23.1191 34.6991 23.2721 34.5381 23.2967 34.3966V34.3894C23.3411 34.1718 23.3667 33.9508 23.3732 33.7288C23.3775 32.4056 23.3732 31.0578 23.3732 29.7583V28.3405H23.3234C23.3284 28.1701 23.3342 27.9997 23.3393 27.8286C23.3559 27.2764 23.3732 26.7053 23.3847 26.143C23.4013 25.307 23.4071 24.4696 23.4107 23.7607C23.4105 23.5378 23.3985 23.3152 23.3746 23.0936C23.353 22.8027 23.1465 22.6229 22.839 22.6309Z" fill="black"/>
<path d="M19.8535 31.2657C19.8535 31.117 19.8535 30.9632 19.8535 30.8109C19.8412 30.3561 19.6521 30.1705 19.2038 30.1705H19.1973L18.8796 30.1749C18.7013 30.1749 18.5187 30.1806 18.3382 30.1749C18.0494 30.1684 17.8329 30.3481 17.8184 30.6232C17.7911 31.0075 17.7839 31.3931 17.7968 31.7782C17.8285 32.5326 17.5571 32.9889 16.9435 33.2141C16.4028 33.4134 15.8736 33.2697 15.2831 32.7629C15.003 32.5232 14.8701 32.1854 14.8867 31.7522C14.8918 31.636 14.8997 31.5205 14.907 31.405C14.9178 31.2476 14.9286 31.0852 14.9315 30.9228C14.9344 30.7603 14.925 30.5943 14.9149 30.4362C14.9149 30.3849 14.9084 30.3337 14.9062 30.2824C14.8925 30.0189 14.7055 29.8493 14.4355 29.8601C14.1656 29.8709 13.8927 29.8774 13.5476 29.8969C13.2747 29.9121 13.1036 30.0853 13.0776 30.3727C13.0625 30.5481 13.0423 30.7271 13.0235 30.8997C12.9924 31.1834 12.96 31.4772 12.9441 31.766C12.9055 32.3713 13.0375 32.9754 13.3252 33.5094C13.7028 34.2125 14.2948 34.7099 15.1863 35.0759C15.6068 35.2494 16.057 35.3391 16.5118 35.3402C17.1058 35.3406 17.6894 35.1836 18.203 34.885C18.7166 34.5865 19.1419 34.1572 19.4355 33.6408C19.8355 32.9477 19.8759 32.1803 19.86 31.4541C19.8528 31.3971 19.8528 31.3314 19.8535 31.2657Z" fill="black"/>
<path d="M22.8001 17.8496H22.7878C22.0464 17.8583 21.3945 18.5477 21.3916 19.3252C21.3902 19.5128 21.4261 19.6988 21.4974 19.8723C21.5687 20.0459 21.6739 20.2035 21.8067 20.3359C21.9316 20.4626 22.0804 20.5632 22.2445 20.632C22.4086 20.7007 22.5847 20.7363 22.7626 20.7365H22.7669C23.1422 20.7306 23.5004 20.5787 23.7656 20.3131C24.0309 20.0474 24.1822 19.689 24.1876 19.3137C24.1837 19.1169 24.1411 18.9229 24.0622 18.7427C23.9833 18.5625 23.8696 18.3996 23.7278 18.2633C23.4843 18.0097 23.1514 17.8612 22.8001 17.8496Z" fill="black"/>
</svg>
