<svg width="24" height="24" viewBox="0 0 24 24" fill="none" xmlns="http://www.w3.org/2000/svg">
<path fill-rule="evenodd" clip-rule="evenodd" d="M7.46876 0.758179H16.1313C20.1175 0.758179 23.35 3.99431 23.35 7.98492V16.657C23.35 20.6476 20.1175 23.8838 16.1313 23.8838H7.46876C3.48256 23.8838 0.25 20.6476 0.25 16.657V7.98492C0.25 3.99431 3.48256 0.758179 7.46876 0.758179ZM16.1311 21.7158C18.9176 21.7158 21.1843 19.4466 21.1843 16.6571V7.98499C21.1843 5.19547 18.9176 2.92627 16.1311 2.92627H7.46865C4.68221 2.92627 2.41553 5.19547 2.41553 7.98499V16.6571C2.41553 19.4466 4.68221 21.7158 7.46865 21.7158H16.1311Z" fill="#062B51"/>
<path fill-rule="evenodd" clip-rule="evenodd" d="M6.02539 12.3209C6.02539 9.12817 8.61114 6.53955 11.8004 6.53955C14.9896 6.53955 17.5754 9.12817 17.5754 12.3209C17.5754 15.5137 14.9896 18.1023 11.8004 18.1023C8.61114 18.1023 6.02539 15.5137 6.02539 12.3209ZM8.19098 12.3209C8.19098 14.3126 9.81087 15.9343 11.8004 15.9343C13.7898 15.9343 15.4097 14.3126 15.4097 12.3209C15.4097 10.3278 13.7898 8.70755 11.8004 8.70755C9.81087 8.70755 8.19098 10.3278 8.19098 12.3209Z" fill="#062B51"/>
<ellipse cx="18.0078" cy="6.10594" rx="0.769531" ry="0.77037" fill="#062B51"/>
</svg>
