<svg width="24" height="20" viewBox="0 0 24 20" fill="none" xmlns="http://www.w3.org/2000/svg">
<path d="M23.2504 3.08486C22.3914 3.4621 21.4761 3.71214 20.5217 3.83355C21.5035 3.24674 22.2528 2.32461 22.6051 1.21314C21.6897 1.75948 20.6791 2.14539 19.6021 2.36074C18.7329 1.43428 17.4942 0.860474 16.1428 0.860474C13.521 0.860474 11.4102 2.99092 11.4102 5.60266C11.4102 5.97845 11.442 6.33979 11.5199 6.68378C7.58283 6.49155 4.09905 4.60248 1.75873 1.72479C1.35015 2.43446 1.11049 3.24674 1.11049 4.12118C1.11049 5.76309 1.95508 7.21856 3.21403 8.0612C2.45318 8.04674 1.70676 7.8256 1.07439 7.47728C1.07439 7.49173 1.07439 7.51052 1.07439 7.52931C1.07439 9.83319 2.71594 11.7468 4.86857 12.1877C4.48309 12.2932 4.06296 12.3438 3.62695 12.3438C3.32376 12.3438 3.01768 12.3264 2.73038 12.2628C3.34397 14.1403 5.08514 15.5206 7.15548 15.5654C5.54425 16.8272 3.49845 17.5875 1.28374 17.5875C0.895367 17.5875 0.522879 17.5701 0.150391 17.5224C2.24816 18.8767 4.7343 19.65 7.41535 19.65C16.1298 19.65 20.8942 12.4233 20.8942 6.15912C20.8942 5.94954 20.887 5.74719 20.8769 5.54629C21.8168 4.87854 22.6065 4.04457 23.2504 3.08486Z" fill="#062B51"/>
</svg>
